<svg width="800" height="600" xmlns="http://www.w3.org/2000/svg">
  <rect width="100%" height="100%" fill="#f5f5f5"/>
  <g>
    <title>Fractal Placeholder</title>
    <g id="fractal" transform="translate(400, 300) scale(0.8)">
      <!-- Mandelbrot-like shape -->
      <path d="M0,0 C-120,-80 -200,-40 -240,40 C-280,120 -200,200 -120,240 C-40,280 40,280 120,240 C200,200 280,120 240,40 C200,-40 120,-80 0,0" fill="#e0e0e0" stroke="#aaaaaa" stroke-width="4"/>
      <path d="M-120,-80 C-160,-40 -180,0 -160,40 C-140,80 -100,100 -60,80 C-20,60 0,20 -20,-20 C-40,-60 -80,-120 -120,-80" fill="#d0d0d0" stroke="#aaaaaa" stroke-width="3"/>
      <path d="M120,-80 C80,-120 40,-100 20,-60 C0,-20 20,20 60,40 C100,60 140,40 160,0 C180,-40 160,-40 120,-80" fill="#d0d0d0" stroke="#aaaaaa" stroke-width="3"/>
      <path d="M-120,60 C-140,100 -120,140 -80,160 C-40,180 0,160 20,120 C40,80 20,40 -20,20 C-60,0 -100,20 -120,60" fill="#d0d0d0" stroke="#aaaaaa" stroke-width="3"/>
      <path d="M60,80 C40,120 60,160 100,180 C140,200 180,180 200,140 C220,100 200,60 160,40 C120,20 80,40 60,80" fill="#d0d0d0" stroke="#aaaaaa" stroke-width="3"/>
    </g>
    
    <!-- Text -->
    <text x="400" y="300" font-family="Arial" font-size="24" text-anchor="middle" fill="#aaaaaa">Generate a Fractal</text>
    <text x="400" y="330" font-family="Arial" font-size="16" text-anchor="middle" fill="#bbbbbb">Click the Generate button to start</text>
    
    <!-- Decorative spiral -->
    <path d="M400,200 
             C380,220 370,240 370,260 
             C370,280 380,300 400,320 
             C420,340 440,350 460,350 
             C480,350 500,340 520,320 
             C540,300 550,280 550,260 
             C550,240 540,220 520,200 
             C500,180 480,170 460,170 
             C440,170 420,180 400,200" 
          fill="none" stroke="#cccccc" stroke-width="2" stroke-dasharray="5,5"/>
  </g>
</svg> 